P3
# output/rapidTest.ppm created by ppma_write.c.
4  4
74
12  12  12 25  25  25 44  44  44 63  63  63
6  0  0 12  0  0 22  0  15 31  0  31
47  47  58 15  47  37 15  31  26 31  31  31
63  63  63 31  32  42 31  33  53 63  64  74
